<?xml version="1.0" encoding="UTF-8"?>
<svg id="Layer_1" xmlns="http://www.w3.org/2000/svg" version="1.1" viewBox="0 0 105.5 36.9">
  <!-- Generator: Adobe Illustrator 29.8.2, SVG Export Plug-In . SVG Version: 2.1.1 Build 3)  -->
  <defs>
    <style>
      .st0 {
        fill: #fff;
      }

      .st1 {
        fill: #ec1c28;
      }
    </style>
  </defs>
  <rect class="st1" x="0" y="0" width="48.1" height="36.9"/>
  <g>
    <path class="st0" d="M11,10.7h0c7.8-6.1,18.7-6.1,26.6,0h0s-13.3,14.8-13.3,14.8l-13.3-14.8Z"/>
    <rect class="st0" x="7.2" y="26.2" width="34.1" height="4.5" transform="translate(48.5 56.9) rotate(180)"/>
  </g>
  <g>
    <path class="st1" d="M60.4,17.9v-4.3s-2.6-6.3-2.6-6.3h1.9s1.6,4.3,1.6,4.3h0s1.7-4.3,1.7-4.3h1.8s-2.7,6.3-2.7,6.3v4.3h-1.8Z"/>
    <path class="st1" d="M65,12.6c0-3.5,1-5.4,3.5-5.4s3.5,1.9,3.5,5.4-1.1,5.4-3.5,5.4-3.5-2-3.5-5.4ZM70.2,12.6c0-2.8-.6-3.9-1.7-3.9s-1.7,1.2-1.7,3.9.6,3.9,1.7,3.9,1.7-1.1,1.7-3.9Z"/>
    <path class="st1" d="M78.1,7.2h1.7v7.2c0,2.3-1,3.5-3.3,3.5s-3.2-1.2-3.2-3.5v-7.2h1.8v7.5c0,1.2.5,1.8,1.5,1.8s1.5-.5,1.5-1.8v-7.5Z"/>
    <path class="st1" d="M89.1,17.9l-.6-2.7h-2.5s-.5,2.7-.5,2.7h-1.8s2.4-10.6,2.4-10.6h2.4s2.5,10.6,2.5,10.6h-1.8ZM86.3,13.6h1.9s-.9-4.6-.9-4.6h0s-.9,4.6-.9,4.6Z"/>
    <path class="st1" d="M96.7,17.9l-1.5-4.4h-1.3s0,4.4,0,4.4h-1.8s0-10.6,0-10.6h2.8c2.3,0,3.4.9,3.4,2.9s-.6,2.2-1.5,2.6l1.9,5.1h-1.9ZM94.8,12c.8,0,1.6-.3,1.6-1.6s-.8-1.6-1.6-1.6h-1s0,3.2,0,3.2h1Z"/>
    <path class="st1" d="M99.9,17.9V7.2s5.4,0,5.4,0v1.6h-3.7s0,2.8,0,2.8h2.7v1.5h-2.7s0,3.1,0,3.1h3.9v1.6h-5.6Z"/>
    <path class="st1" d="M63.6,31v-4.7s-3,0-3,0v4.7h-1.8s0-10.6,0-10.6h1.8v4.3s3,0,3,0v-4.3h1.7s0,10.6,0,10.6h-1.7Z"/>
    <path class="st1" d="M67.2,31v-10.6s5.4,0,5.4,0v1.6h-3.7s0,2.8,0,2.8h2.7v1.5h-2.7s0,3.1,0,3.1h3.9v1.6h-5.6Z"/>
    <path class="st1" d="M78.7,31l-1.5-4.4h-1.3s0,4.4,0,4.4h-1.8s0-10.6,0-10.6h2.8c2.3,0,3.4.9,3.4,2.9s-.6,2.2-1.5,2.6l1.9,5.1h-1.9ZM76.8,25.1c.8,0,1.6-.3,1.6-1.6s-.8-1.6-1.6-1.6h-1s0,3.2,0,3.2h1Z"/>
    <path class="st1" d="M81.8,31v-10.6s5.4,0,5.4,0v1.6h-3.7s0,2.8,0,2.8h2.7v1.5h-2.7s0,3.1,0,3.1h3.9v1.6h-5.6Z"/>
  </g>
</svg>